<?xml version="1.0" encoding="UTF-8" standalone="no"?>
<!-- Created with Inkscape (http://www.inkscape.org/) -->

<svg
   width="169.4129mm"
   height="171.87724mm"
   viewBox="0 0 169.4129 171.87724"
   version="1.1"
   id="svg1"
   inkscape:version="1.4.2 (ebf0e940, 2025-05-08)"
   sodipodi:docname="drawing.svg"
   xmlns:inkscape="http://www.inkscape.org/namespaces/inkscape"
   xmlns:sodipodi="http://sodipodi.sourceforge.net/DTD/sodipodi-0.dtd"
   xmlns="http://www.w3.org/2000/svg"
   xmlns:svg="http://www.w3.org/2000/svg">
  <sodipodi:namedview
     id="namedview1"
     pagecolor="#ffffff"
     bordercolor="#000000"
     borderopacity="0.25"
     inkscape:showpageshadow="2"
     inkscape:pageopacity="0.0"
     inkscape:pagecheckerboard="0"
     inkscape:deskcolor="#d1d1d1"
     inkscape:document-units="mm"
     inkscape:zoom="0.74118967"
     inkscape:cx="458.72199"
     inkscape:cy="602.4099"
     inkscape:window-width="1728"
     inkscape:window-height="966"
     inkscape:window-x="0"
     inkscape:window-y="38"
     inkscape:window-maximized="1"
     inkscape:current-layer="layer1">
    <inkscape:page
       x="0"
       y="-1.7562529e-13"
       width="169.4129"
       height="171.87726"
       id="page2"
       margin="0"
       bleed="0" />
  </sodipodi:namedview>
  <defs
     id="defs1" />
  <g
     inkscape:label="Layer 1"
     inkscape:groupmode="layer"
     id="layer1"
     transform="translate(-19.206062,-63.420189)">
    <path
       d="m 24.50238,63.420418 c -2.934055,0 -5.296317,2.491602 -5.296317,5.586739 v 10.68462 c 0,3.095137 2.362262,5.586739 5.296317,5.586739 h 10.880473 c 2.934056,0 5.296318,-2.491602 5.296318,-5.586739 v -10.68462 c 0,-3.095137 -2.362262,-5.586739 -5.296318,-5.586739 z"
       style="fill:#eef5f8;fill-opacity:1;stroke-width:0.179903"
       id="path6" />
    <path
       d="m 49.158757,63.420418 c -2.934056,0 -5.295801,2.491602 -5.295801,5.586739 v 10.68462 c 0,3.095137 2.361745,5.586739 5.295801,5.586739 h 10.880989 c 2.934055,0 5.295801,-2.491602 5.295801,-5.586739 v -10.68462 c 0,-3.095137 -2.361746,-5.586739 -5.295801,-5.586739 z"
       style="fill:#eef5f8;fill-opacity:1;stroke-width:0.179903"
       id="path7" />
    <rect
       style="fill:#1ac90e;fill-opacity:1;stroke-width:0.179903"
       id="rect5-3"
       width="21.472855"
       height="21.858482"
       x="68.51947"
       y="63.420193"
       rx="5.2961287"
       ry="5.5868912" />
    <rect
       style="fill:#1ac90e;fill-opacity:1;stroke-width:0.179903"
       id="rect5-5"
       width="21.472855"
       height="21.858482"
       x="93.176155"
       y="63.420193"
       rx="5.2961287"
       ry="5.5868912" />
    <rect
       style="fill:#1ac90e;fill-opacity:1;stroke-width:0.179903"
       id="rect5-9"
       width="21.472855"
       height="21.858482"
       x="117.83285"
       y="63.420193"
       rx="5.2961287"
       ry="5.5868912" />
    <path
       d="m 24.50238,113.42667 c -2.934055,0 -5.296317,2.4916 -5.296317,5.58674 v 10.68462 c 0,3.09513 2.362262,5.58674 5.296317,5.58674 h 10.880473 c 2.934056,0 5.296318,-2.49161 5.296318,-5.58674 v -10.68462 c 0,-3.09514 -2.362262,-5.58674 -5.296318,-5.58674 z"
       style="fill:#eef5f8;fill-opacity:1;stroke-width:0.179903"
       id="path15" />
    <rect
       style="fill:#1ac90e;fill-opacity:1;stroke-width:0.179903"
       id="rect5-8"
       width="21.472855"
       height="21.858482"
       x="43.862782"
       y="113.42645"
       rx="5.2961287"
       ry="5.5868912" />
    <path
       d="m 73.815649,113.42667 c -2.934055,0 -5.296317,2.4916 -5.296317,5.58674 v 10.68462 c 0,3.09513 2.362262,5.58674 5.296317,5.58674 h 10.880473 c 2.934056,0 5.296318,-2.49161 5.296318,-5.58674 v -10.68462 c 0,-3.09514 -2.362262,-5.58674 -5.296318,-5.58674 z"
       style="fill:#eef5f8;fill-opacity:1;stroke-width:0.179903"
       id="path16" />
    <path
       d="m 98.472026,113.42667 c -2.934056,0 -5.295801,2.4916 -5.295801,5.58674 v 10.68462 c 0,3.09513 2.361745,5.58674 5.295801,5.58674 h 10.880994 c 2.93405,0 5.2958,-2.49161 5.2958,-5.58674 v -10.68462 c 0,-3.09514 -2.36175,-5.58674 -5.2958,-5.58674 z"
       style="fill:#eef5f8;fill-opacity:1;stroke-width:0.179903"
       id="path17" />
    <path
       d="m 123.12892,113.42667 c -2.93406,0 -5.29632,2.4916 -5.29632,5.58674 v 10.68462 c 0,3.09513 2.36226,5.58674 5.29632,5.58674 h 10.88047 c 2.93406,0 5.29632,-2.49161 5.29632,-5.58674 v -10.68462 c 0,-3.09514 -2.36226,-5.58674 -5.29632,-5.58674 z"
       style="fill:#eef5f8;fill-opacity:1;stroke-width:0.179903"
       id="path18" />
    <path
       d="m 24.50238,88.423543 c -2.934055,0 -5.296317,2.491602 -5.296317,5.586739 V 104.6949 c 0,3.09514 2.362262,5.58674 5.296317,5.58674 h 10.880473 c 2.934056,0 5.296318,-2.4916 5.296318,-5.58674 V 94.010282 c 0,-3.095137 -2.362262,-5.586739 -5.296318,-5.586739 z"
       style="fill:#eef5f8;fill-opacity:1;stroke-width:0.179903"
       id="path10" />
    <rect
       style="fill:#1ac90e;fill-opacity:1;stroke-width:0.179903"
       id="rect5-29"
       width="21.472855"
       height="21.858482"
       x="43.862782"
       y="88.423325"
       rx="5.2961287"
       ry="5.5868912" />
    <path
       d="m 73.815649,88.423543 c -2.934055,0 -5.296317,2.491602 -5.296317,5.586739 V 104.6949 c 0,3.09514 2.362262,5.58674 5.296317,5.58674 h 10.880473 c 2.934056,0 5.296318,-2.4916 5.296318,-5.58674 V 94.010282 c 0,-3.095137 -2.362262,-5.586739 -5.296318,-5.586739 z"
       style="fill:#eef5f8;fill-opacity:1;stroke-width:0.179903"
       id="path11" />
    <path
       d="m 98.472026,88.423543 c -2.934056,0 -5.295801,2.491602 -5.295801,5.586739 V 104.6949 c 0,3.09514 2.361745,5.58674 5.295801,5.58674 h 10.880994 c 2.93405,0 5.2958,-2.4916 5.2958,-5.58674 V 94.010282 c 0,-3.095137 -2.36175,-5.586739 -5.2958,-5.586739 z"
       style="fill:#eef5f8;fill-opacity:1;stroke-width:0.179903"
       id="path12" />
    <path
       d="m 123.12892,88.423543 c -2.93406,0 -5.29632,2.491602 -5.29632,5.586739 V 104.6949 c 0,3.09514 2.36226,5.58674 5.29632,5.58674 h 10.88047 c 2.93406,0 5.29632,-2.4916 5.29632,-5.58674 V 94.010282 c 0,-3.095137 -2.36226,-5.586739 -5.29632,-5.586739 z"
       style="fill:#eef5f8;fill-opacity:1;stroke-width:0.179903"
       id="path13" />
    <path
       d="m 24.50238,138.42979 c -2.934055,0 -5.296317,2.4916 -5.296317,5.58674 v 10.68462 c 0,3.09514 2.362262,5.58674 5.296317,5.58674 h 10.880473 c 2.934056,0 5.296318,-2.4916 5.296318,-5.58674 v -10.68462 c 0,-3.09514 -2.362262,-5.58674 -5.296318,-5.58674 z"
       style="fill:#eef5f8;fill-opacity:1;stroke-width:0.179903"
       id="path21" />
    <rect
       style="fill:#eef5f8;fill-opacity:1;stroke-width:0.179903"
       id="rect5-0"
       width="21.472855"
       height="21.858482"
       x="43.862782"
       y="138.42958"
       rx="5.2961287"
       ry="5.5868912" />
    <rect
       style="fill:#1ac90e;fill-opacity:1;stroke-width:0.179903"
       id="rect5-28"
       width="21.472855"
       height="21.858482"
       x="68.51947"
       y="138.42958"
       rx="5.2961287"
       ry="5.5868912" />
    <rect
       style="fill:#1ac90e;fill-opacity:1;stroke-width:0.179903"
       id="rect5-90"
       width="21.472855"
       height="21.858482"
       x="93.176155"
       y="138.42958"
       rx="5.2961287"
       ry="5.5868912" />
    <rect
       style="fill:#1ac90e;fill-opacity:1;stroke-width:0.179903"
       id="rect5-30"
       width="21.472855"
       height="21.858482"
       x="117.83285"
       y="138.42958"
       rx="5.2961287"
       ry="5.5868912" />
    <path
       d="m 24.50238,163.43292 c -2.934055,0 -5.296317,2.4916 -5.296317,5.58674 v 10.68462 c 0,3.09513 2.362262,5.58674 5.296317,5.58674 h 10.880473 c 2.934056,0 5.296318,-2.49161 5.296318,-5.58674 v -10.68462 c 0,-3.09514 -2.362262,-5.58674 -5.296318,-5.58674 z"
       style="fill:#eef5f8;fill-opacity:1;stroke-width:0.179903"
       id="path24" />
    <path
       d="m 49.158757,163.43292 c -2.934056,0 -5.295801,2.4916 -5.295801,5.58674 v 10.68462 c 0,3.09513 2.361745,5.58674 5.295801,5.58674 h 10.880989 c 2.934055,0 5.295801,-2.49161 5.295801,-5.58674 v -10.68462 c 0,-3.09514 -2.361746,-5.58674 -5.295801,-5.58674 z"
       style="fill:#eef5f8;fill-opacity:1;stroke-width:0.179903"
       id="path25" />
    <path
       d="m 73.815649,163.43292 c -2.934055,0 -5.296317,2.4916 -5.296317,5.58674 v 10.68462 c 0,3.09513 2.362262,5.58674 5.296317,5.58674 h 10.880473 c 2.934056,0 5.296318,-2.49161 5.296318,-5.58674 v -10.68462 c 0,-3.09514 -2.362262,-5.58674 -5.296318,-5.58674 z"
       style="fill:#eef5f8;fill-opacity:1;stroke-width:0.179903"
       id="path26" />
    <path
       d="m 98.472026,163.43292 c -2.934056,0 -5.295801,2.4916 -5.295801,5.58674 v 10.68462 c 0,3.09513 2.361745,5.58674 5.295801,5.58674 h 10.880994 c 2.93405,0 5.2958,-2.49161 5.2958,-5.58674 v -10.68462 c 0,-3.09514 -2.36175,-5.58674 -5.2958,-5.58674 z"
       style="fill:#eef5f8;fill-opacity:1;stroke-width:0.179903"
       id="path27" />
    <path
       d="m 123.12892,163.43292 c -2.93406,0 -5.29632,2.4916 -5.29632,5.58674 v 10.68462 c 0,3.09513 2.36226,5.58674 5.29632,5.58674 h 10.88047 c 2.93406,0 5.29632,-2.49161 5.29632,-5.58674 v -10.68462 c 0,-3.09514 -2.36226,-5.58674 -5.29632,-5.58674 z"
       style="fill:#eef5f8;fill-opacity:1;stroke-width:0.179903"
       id="path28" />
    <path
       d="m 147.78581,63.420418 c -2.93405,0 -5.29632,2.491602 -5.29632,5.586739 v 10.68462 c 0,3.095137 2.36227,5.586739 5.29632,5.586739 h 10.88047 c 2.93406,0 5.29632,-2.491602 5.29632,-5.586739 v -10.68462 c 0,-3.095137 -2.36226,-5.586739 -5.29632,-5.586739 z"
       style="fill:#eef5f8;fill-opacity:1;stroke-width:0.179903"
       id="path8" />
    <path
       d="m 147.78581,113.42667 c -2.93405,0 -5.29632,2.4916 -5.29632,5.58674 v 10.68462 c 0,3.09513 2.36227,5.58674 5.29632,5.58674 h 10.88047 c 2.93406,0 5.29632,-2.49161 5.29632,-5.58674 v -10.68462 c 0,-3.09514 -2.36226,-5.58674 -5.29632,-5.58674 z"
       style="fill:#eef5f8;fill-opacity:1;stroke-width:0.179903"
       id="path19" />
    <rect
       style="fill:#1ac90e;fill-opacity:1;stroke-width:0.179903"
       id="rect5-27-7"
       width="21.472855"
       height="21.858482"
       x="142.48953"
       y="88.423325"
       rx="5.2961287"
       ry="5.5868912" />
    <path
       d="m 147.78581,138.42979 c -2.93405,0 -5.29632,2.4916 -5.29632,5.58674 v 10.68462 c 0,3.09514 2.36227,5.58674 5.29632,5.58674 h 10.88047 c 2.93406,0 5.29632,-2.4916 5.29632,-5.58674 v -10.68462 c 0,-3.09514 -2.36226,-5.58674 -5.29632,-5.58674 z"
       style="fill:#eef5f8;fill-opacity:1;stroke-width:0.179903"
       id="path22" />
    <rect
       style="fill:#1ac90e;fill-opacity:1;stroke-width:0.179903"
       id="rect5-30-0-0"
       width="21.472855"
       height="21.858482"
       x="142.48953"
       y="163.43271"
       rx="5.2961287"
       ry="5.5868912" />
    <path
       d="m 24.50238,188.43604 c -2.934055,0 -5.296317,2.4916 -5.296317,5.58674 v 10.68462 c 0,3.09514 2.362262,5.58674 5.296317,5.58674 h 10.880473 c 2.934056,0 5.296318,-2.4916 5.296318,-5.58674 v -10.68462 c 0,-3.09514 -2.362262,-5.58674 -5.296318,-5.58674 z"
       style="fill:#eef5f8;fill-opacity:1;stroke-width:0.179903"
       id="path30" />
    <rect
       style="fill:#1ac90e;fill-opacity:1;stroke-width:0.179903"
       id="rect5-0-3-6"
       width="21.472855"
       height="21.858482"
       x="43.862782"
       y="188.43585"
       rx="5.2961287"
       ry="5.5868912" />
    <path
       d="m 73.815649,188.43604 c -2.934055,0 -5.296317,2.4916 -5.296317,5.58674 v 10.68462 c 0,3.09514 2.362262,5.58674 5.296317,5.58674 h 10.880473 c 2.934056,0 5.296318,-2.4916 5.296318,-5.58674 v -10.68462 c 0,-3.09514 -2.362262,-5.58674 -5.296318,-5.58674 z"
       style="fill:#eef5f8;fill-opacity:1;stroke-width:0.179903"
       id="path31" />
    <path
       d="m 98.472026,188.43604 c -2.934056,0 -5.295801,2.4916 -5.295801,5.58674 v 10.68462 c 0,3.09514 2.361745,5.58674 5.295801,5.58674 h 10.880994 c 2.93405,0 5.2958,-2.4916 5.2958,-5.58674 v -10.68462 c 0,-3.09514 -2.36175,-5.58674 -5.2958,-5.58674 z"
       style="fill:#eef5f8;fill-opacity:1;stroke-width:0.179903"
       id="path32" />
    <path
       d="m 123.12892,188.43604 c -2.93406,0 -5.29632,2.4916 -5.29632,5.58674 v 10.68462 c 0,3.09514 2.36226,5.58674 5.29632,5.58674 h 10.88047 c 2.93406,0 5.29632,-2.4916 5.29632,-5.58674 v -10.68462 c 0,-3.09514 -2.36226,-5.58674 -5.29632,-5.58674 z"
       style="fill:#eef5f8;fill-opacity:1;stroke-width:0.179903"
       id="path33" />
    <rect
       style="fill:#1ac90e;fill-opacity:1;stroke-width:0.179903"
       id="rect5-30-0-0-4"
       width="21.472855"
       height="21.858482"
       x="142.48953"
       y="188.43585"
       rx="5.2961287"
       ry="5.5868912" />
    <path
       d="m 172.44219,63.420418 c -2.93406,0 -5.2958,2.491602 -5.2958,5.586739 v 10.68462 c 0,3.095137 2.36174,5.586739 5.2958,5.586739 h 10.88099 c 2.93405,0 5.2958,-2.491602 5.2958,-5.586739 v -10.68462 c 0,-3.095137 -2.36175,-5.586739 -5.2958,-5.586739 z"
       style="fill:#eef5f8;fill-opacity:1;stroke-width:0.179903"
       id="path9" />
    <path
       d="m 172.44219,113.42667 c -2.93406,0 -5.2958,2.4916 -5.2958,5.58674 v 10.68462 c 0,3.09513 2.36174,5.58674 5.2958,5.58674 h 10.88099 c 2.93405,0 5.2958,-2.49161 5.2958,-5.58674 v -10.68462 c 0,-3.09514 -2.36175,-5.58674 -5.2958,-5.58674 z"
       style="fill:#eef5f8;fill-opacity:1;stroke-width:0.179903"
       id="path20" />
    <path
       d="m 172.44219,88.423543 c -2.93406,0 -5.2958,2.491602 -5.2958,5.586739 V 104.6949 c 0,3.09514 2.36174,5.58674 5.2958,5.58674 h 10.88099 c 2.93405,0 5.2958,-2.4916 5.2958,-5.58674 V 94.010282 c 0,-3.095137 -2.36175,-5.586739 -5.2958,-5.586739 z"
       style="fill:#eef5f8;fill-opacity:1;stroke-width:0.179903"
       id="path14" />
    <path
       d="m 172.44219,138.42979 c -2.93406,0 -5.2958,2.4916 -5.2958,5.58674 v 10.68462 c 0,3.09514 2.36174,5.58674 5.2958,5.58674 h 10.88099 c 2.93405,0 5.2958,-2.4916 5.2958,-5.58674 v -10.68462 c 0,-3.09514 -2.36175,-5.58674 -5.2958,-5.58674 z"
       style="fill:#eef5f8;fill-opacity:1;stroke-width:0.179903"
       id="path23" />
    <path
       d="m 172.44219,163.43292 c -2.93406,0 -5.2958,2.4916 -5.2958,5.58674 v 10.68462 c 0,3.09513 2.36174,5.58674 5.2958,5.58674 h 10.88099 c 2.93405,0 5.2958,-2.49161 5.2958,-5.58674 v -10.68462 c 0,-3.09514 -2.36175,-5.58674 -5.2958,-5.58674 z"
       style="fill:#eef5f8;fill-opacity:1;stroke-width:0.179903"
       id="path29" />
    <path
       d="m 172.44219,188.43604 c -2.93406,0 -5.2958,2.4916 -5.2958,5.58674 v 10.68462 c 0,3.09514 2.36174,5.58674 5.2958,5.58674 h 10.88099 c 2.93405,0 5.2958,-2.4916 5.2958,-5.58674 v -10.68462 c 0,-3.09514 -2.36175,-5.58674 -5.2958,-5.58674 z"
       style="fill:#eef5f8;fill-opacity:1;stroke-width:0.179903"
       id="path34" />
    <path
       d="m 24.50238,213.43917 c -2.934055,0 -5.296317,2.4916 -5.296317,5.58674 v 10.68462 c 0,3.09513 2.362262,5.58674 5.296317,5.58674 h 10.880473 c 2.934056,0 5.296318,-2.49161 5.296318,-5.58674 v -10.68462 c 0,-3.09514 -2.362262,-5.58674 -5.296318,-5.58674 z"
       style="fill:#eef5f8;fill-opacity:1;stroke-width:0.179903"
       id="path35" />
    <rect
       style="fill:#eef5f8;fill-opacity:1;stroke-width:0.179903"
       id="rect5-0-3-6-5"
       width="21.472855"
       height="21.858482"
       x="43.862782"
       y="213.43896"
       rx="5.2961287"
       ry="5.5868912" />
    <rect
       style="fill:#1ac90e;fill-opacity:1;stroke-width:0.179903"
       id="rect5-28-8-1-9"
       width="21.472855"
       height="21.858482"
       x="68.51947"
       y="213.43896"
       rx="5.2961287"
       ry="5.5868912" />
    <rect
       style="fill:#1ac90e;fill-opacity:1;stroke-width:0.179903"
       id="rect5-90-4-2-0"
       width="21.472855"
       height="21.858482"
       x="93.176155"
       y="213.43896"
       rx="5.2961287"
       ry="5.5868912" />
    <rect
       style="fill:#1ac90e;fill-opacity:1;stroke-width:0.179903"
       id="rect5-30-0-04-9"
       width="21.472855"
       height="21.858482"
       x="117.83285"
       y="213.43896"
       rx="5.2961287"
       ry="5.5868912" />
    <path
       d="m 147.78581,213.43917 c -2.93405,0 -5.29632,2.4916 -5.29632,5.58674 v 10.68462 c 0,3.09513 2.36227,5.58674 5.29632,5.58674 h 10.88047 c 2.93406,0 5.29632,-2.49161 5.29632,-5.58674 v -10.68462 c 0,-3.09514 -2.36226,-5.58674 -5.29632,-5.58674 z"
       style="fill:#eef5f8;fill-opacity:1;stroke-width:0.179903"
       id="path36" />
    <path
       d="m 172.44219,213.43917 c -2.93406,0 -5.2958,2.4916 -5.2958,5.58674 v 10.68462 c 0,3.09513 2.36174,5.58674 5.2958,5.58674 h 10.88099 c 2.93405,0 5.2958,-2.49161 5.2958,-5.58674 v -10.68462 c 0,-3.09514 -2.36175,-5.58674 -5.2958,-5.58674 z"
       style="fill:#eef5f8;fill-opacity:1;stroke-width:0.179903"
       id="path37" />
  </g>
</svg>
