<?xml version="1.0" encoding="UTF-8" standalone="no"?>
<!-- Created with Inkscape (http://www.inkscape.org/) -->

<svg
   width="42.664974mm"
   height="42.580364mm"
   viewBox="0 0 42.664974 42.580364"
   version="1.1"
   id="svg1"
   inkscape:version="1.4.2 (ebf0e940, 2025-05-08)"
   sodipodi:docname="drawing.svg"
   xml:space="preserve"
   xmlns:inkscape="http://www.inkscape.org/namespaces/inkscape"
   xmlns:sodipodi="http://sodipodi.sourceforge.net/DTD/sodipodi-0.dtd"
   xmlns="http://www.w3.org/2000/svg"
   xmlns:svg="http://www.w3.org/2000/svg"><sodipodi:namedview
     id="namedview1"
     pagecolor="#ffffff"
     bordercolor="#000000"
     borderopacity="0.25"
     inkscape:showpageshadow="2"
     inkscape:pageopacity="0.0"
     inkscape:pagecheckerboard="0"
     inkscape:deskcolor="#d1d1d1"
     inkscape:document-units="mm"
     inkscape:zoom="2.096401"
     inkscape:cx="137.85531"
     inkscape:cy="913.23178"
     inkscape:window-width="1728"
     inkscape:window-height="966"
     inkscape:window-x="0"
     inkscape:window-y="38"
     inkscape:window-maximized="1"
     inkscape:current-layer="layer1"><inkscape:page
       x="0"
       y="0"
       width="42.664974"
       height="42.580364"
       id="page2"
       margin="0"
       bleed="0" /></sodipodi:namedview><defs
     id="defs1"><linearGradient
       id="swatch56"
       inkscape:swatch="solid"><stop
         style="stop-color:#a1a1a1;stop-opacity:1;"
         offset="0"
         id="stop56" /></linearGradient></defs><g
     inkscape:label="Layer 1"
     inkscape:groupmode="layer"
     id="layer1"
     transform="translate(-16.563853,-176.69113)"><path
       style="fill:#51c064;fill-opacity:1;stroke:#000000;stroke-width:0.266034;stroke-dasharray:none;stroke-opacity:1"
       d="m 20.623178,218.45026 c -1.782633,-0.81858 -2.581486,-1.65419 -3.357807,-3.51215 -0.487891,-1.16773 -0.575037,-3.78065 -0.56807,-17.03407 0.007,-14.38709 0.064,-15.77624 0.696439,-17.15356 0.818593,-1.78267 1.654164,-2.58151 3.512134,-3.35783 1.167721,-0.4879 3.780646,-0.57504 17.034099,-0.56808 14.387051,0.008 15.776191,0.064 17.153536,0.69645 1.78265,0.81862 2.5815,1.65416 3.35781,3.51214 0.859319,2.05663 0.859319,31.84832 0,33.90495 -0.77631,1.85796 -1.57516,2.69354 -3.35781,3.51214 -1.378732,0.63312 -2.758484,0.68821 -17.235159,0.68821 -14.47667,0 -15.856439,-0.0553 -17.235172,-0.6882 z"
       id="path43"
       sodipodi:nodetypes="sscsscssssss" /><g
       id="g50"
       transform="matrix(0.79196074,0,0,0.79196074,17.598923,42.20671)"
       style="fill:#ffffff;fill-opacity:1;stroke:#000000;stroke-opacity:1"><rect
         style="fill:#ffffff;fill-opacity:1;stroke:#000000;stroke-width:0.204851;stroke-opacity:1"
         id="rect50"
         width="6.4949756"
         height="6.4949756"
         x="12.001215"
         y="179.68237"
         rx="1.3319263"
         ry="1.393273" /><rect
         style="fill:#ffffff;fill-opacity:1;stroke:#000000;stroke-width:0.204851;stroke-opacity:1"
         id="rect50-4"
         width="6.4949756"
         height="6.4949756"
         x="12.001215"
         y="186.70911"
         rx="1.3319263"
         ry="1.393273" /><rect
         style="fill:#ffffff;fill-opacity:1;stroke:#000000;stroke-width:0.204851;stroke-opacity:1"
         id="rect50-45"
         width="6.4949756"
         height="6.4949756"
         x="33.144432"
         y="200.62405"
         rx="1.3319263"
         ry="1.393273" /><rect
         style="fill:#ffffff;fill-opacity:1;stroke:#000000;stroke-width:0.204851;stroke-opacity:1"
         id="rect50-7"
         width="6.4949756"
         height="6.4949756"
         x="11.946886"
         y="193.60588"
         rx="1.3319263"
         ry="1.393273" /><rect
         style="fill:#ffffff;fill-opacity:1;stroke:#000000;stroke-width:0.204851;stroke-opacity:1"
         id="rect50-6-0"
         width="6.4949756"
         height="6.4949756"
         x="19.01152"
         y="193.60588"
         rx="1.3319263"
         ry="1.393273" /><rect
         style="fill:#ffffff;fill-opacity:1;stroke:#000000;stroke-width:0.204851;stroke-opacity:1"
         id="rect50-0-4"
         width="6.4949756"
         height="6.4949756"
         x="26.048609"
         y="193.60588"
         rx="1.3319263"
         ry="1.393273" /><rect
         style="fill:#ffffff;fill-opacity:1;stroke:#000000;stroke-width:0.204851;stroke-opacity:1"
         id="rect50-6-8-0"
         width="6.4949756"
         height="6.4949756"
         x="33.085697"
         y="193.60588"
         rx="1.3319263"
         ry="1.393273" /><rect
         style="fill:#ffffff;fill-opacity:1;stroke:#000000;stroke-width:0.204851;stroke-opacity:1"
         id="rect50-5"
         width="6.4949756"
         height="6.4949756"
         x="11.938061"
         y="207.50716"
         rx="1.3319263"
         ry="1.393273" /><rect
         style="fill:#ffffff;fill-opacity:1;stroke:#000000;stroke-width:0.204851;stroke-opacity:1"
         id="rect50-6-1"
         width="6.4949756"
         height="6.4949756"
         x="19.002693"
         y="207.50716"
         rx="1.3319263"
         ry="1.393273" /><rect
         style="fill:#ffffff;fill-opacity:1;stroke:#000000;stroke-width:0.204851;stroke-opacity:1"
         id="rect50-0-2"
         width="6.4949756"
         height="6.4949756"
         x="26.039783"
         y="207.50716"
         rx="1.3319263"
         ry="1.393273" /><rect
         style="fill:#ffffff;fill-opacity:1;stroke:#000000;stroke-width:0.204851;stroke-opacity:1"
         id="rect50-6-8-4"
         width="6.4949756"
         height="6.4949756"
         x="33.076874"
         y="207.50716"
         rx="1.3319263"
         ry="1.393273" /><rect
         style="fill:#ffffff;fill-opacity:1;stroke:#000000;stroke-width:0.204851;stroke-opacity:1"
         id="rect50-6"
         width="6.4949756"
         height="6.4949756"
         x="19.065849"
         y="179.68237"
         rx="1.3319263"
         ry="1.393273" /><rect
         style="fill:#ffffff;fill-opacity:1;stroke:#000000;stroke-width:0.204851;stroke-opacity:1"
         id="rect50-0"
         width="6.4949756"
         height="6.4949756"
         x="26.10294"
         y="179.68237"
         rx="1.3319263"
         ry="1.393273" /><rect
         style="fill:#ffffff;fill-opacity:1;stroke:#000000;stroke-width:0.204851;stroke-opacity:1"
         id="rect50-6-8"
         width="6.4949756"
         height="6.4949756"
         x="33.140026"
         y="179.68237"
         rx="1.3319263"
         ry="1.393273" /></g></g></svg>
