<?xml version="1.0" encoding="UTF-8" standalone="no"?>
<!-- Created with Inkscape (http://www.inkscape.org/) -->

<svg
   width="23.034811mm"
   height="22.979572mm"
   viewBox="0 0 23.034811 22.979572"
   version="1.1"
   id="svg1"
   xml:space="preserve"
   xmlns="http://www.w3.org/2000/svg"
   xmlns:svg="http://www.w3.org/2000/svg"><defs
     id="defs1"><linearGradient
       id="swatch56"><stop
         style="stop-color:#a1a1a1;stop-opacity:1;"
         offset="0"
         id="stop56" /></linearGradient></defs><g
     id="layer1"
     transform="translate(-94.151921,-8.9873928)"><rect
       style="fill:#6f5252;fill-opacity:1;stroke:none;stroke-width:0.221785;stroke-dasharray:none;stroke-opacity:1"
       id="rect1"
       width="21.796995"
       height="21.940763"
       x="94.865036"
       y="9.544219" /><rect
       style="fill:#1ac90e;fill-opacity:1;stroke:#565656;stroke-width:0.267072;stroke-dasharray:none;stroke-opacity:1"
       id="rect5-3-3-2-9"
       width="7.416925"
       height="7.418396"
       x="94.285484"
       y="9.1209354"
       rx="1.8293326"
       ry="1.8960956" /><rect
       style="fill:#fff1c9;fill-opacity:1;stroke:#565656;stroke-width:0.269333;stroke-dasharray:none;stroke-opacity:1"
       id="rect5-5-7-0-0"
       width="7.6823983"
       height="7.2837477"
       x="101.8281"
       y="9.1220589"
       rx="1.8948097"
       ry="1.8616803" /><rect
       style="fill:#fff1c9;fill-opacity:1;stroke:#565656;stroke-width:0.266303;stroke-dasharray:none;stroke-opacity:1"
       id="rect5-9-6-7-5"
       width="7.4623222"
       height="7.330893"
       x="109.59122"
       y="9.120554"
       rx="1.8405294"
       ry="1.8737303" /><path
       d="m 96.12624,24.371783 c -1.019327,0 -1.840011,0.850462 -1.840011,1.906931 v 3.647004 c 0,1.05647 0.820684,1.906931 1.840011,1.906931 h 3.780041 c 1.019329,0 1.840019,-0.850461 1.840019,-1.906931 v -3.647004 c 0,-1.056469 -0.82069,-1.906931 -1.840019,-1.906931 z"
       style="fill:#fff1c9;fill-opacity:1;stroke:#565656;stroke-width:0.268615;stroke-dasharray:none;stroke-opacity:1"
       id="path16-7-4-6" /><path
       d="m 103.85754,24.328416 c -1.02522,0 -1.85047,0.855317 -1.85047,1.917819 v 3.667828 c 0,1.062502 0.82525,1.91782 1.85047,1.91782 h 3.80206 c 1.02521,0 1.85047,-0.855318 1.85047,-1.91782 v -3.667828 c 0,-1.062502 -0.82526,-1.917819 -1.85047,-1.917819 z"
       style="fill:#fff1c9;fill-opacity:1;stroke:#565656;stroke-width:0.270157;stroke-dasharray:none;stroke-opacity:1"
       id="path17-1-8-3" /><path
       d="m 111.39952,24.240909 c -1.02501,0 -1.85026,0.865206 -1.85026,1.939991 v 3.710231 c 0,1.074785 0.82525,1.939991 1.85026,1.939991 h 3.80109 c 1.02501,0 1.85026,-0.865206 1.85026,-1.939991 V 26.1809 c 0,-1.074785 -0.82525,-1.939991 -1.85026,-1.939991 z"
       style="fill:#1ac90e;fill-opacity:1;stroke:#565656;stroke-width:0.271686;stroke-dasharray:none;stroke-opacity:1"
       id="path18-8-5-6" /><path
       d="m 96.126044,16.702267 c -1.019432,0 -1.840201,0.845518 -1.840201,1.895846 v 3.625804 c 0,1.050328 0.820769,1.895846 1.840201,1.895846 h 3.780433 c 1.019443,0 1.840203,-0.845518 1.840203,-1.895846 v -3.625804 c 0,-1.050328 -0.82076,-1.895846 -1.840203,-1.895846 z"
       style="fill:#fff1c9;fill-opacity:1;stroke:#565656;stroke-width:0.267847;stroke-dasharray:none;stroke-opacity:1"
       id="path11-7-8-3" /><path
       d="m 103.69139,16.575996 c -1.07872,0 -1.94703,0.874305 -1.94703,1.960394 v 3.74925 c 0,1.086089 0.86831,1.960394 1.94703,1.960394 h 4.00048 c 1.07873,0 1.94704,-0.874305 1.94704,-1.960394 v -3.74925 c 0,-1.086089 -0.86831,-1.960394 -1.94704,-1.960394 z"
       style="fill:#1ac90e;fill-opacity:1;stroke:#565656;stroke-width:0.280175;stroke-dasharray:none;stroke-opacity:1"
       id="path12-3-3-0" /><path
       d="m 111.49938,16.613987 c -1.00724,0 -1.81819,0.855582 -1.81819,1.918413 v 3.668963 c 0,1.06283 0.81095,1.918414 1.81819,1.918414 h 3.73523 c 1.00725,0 1.81821,-0.855584 1.81821,-1.918414 V 18.5324 c 0,-1.062831 -0.81096,-1.918413 -1.81821,-1.918413 z"
       style="fill:#fff1c9;fill-opacity:1;stroke:#565656;stroke-width:0.26782;stroke-dasharray:none;stroke-opacity:1"
       id="path13-1-0-8" /><g
       id="g2"
       transform="translate(0.44172926,-0.06310418)"><path
         style="fill:#ffffff;fill-opacity:1;stroke:#565656;stroke-width:0.688987;stroke-dasharray:none;stroke-opacity:1"
         d="m 106.15302,29.785301 c -3.18122,0.483987 -7.39295,-2.269771 -5.63532,-3.372668 1.79433,-1.125916 2.09086,-0.367491 3.9123,0.284377 0.70943,0.19262 1.32982,0.177814 2.24199,-0.05353 1.91774,-0.486489 2.89362,-1.583175 2.59304,-2.914338 -0.20048,-0.887626 -0.75742,-1.330451 -1.85505,-1.474945 -0.24735,-0.03254 -1.01018,-0.04058 -1.6952,-0.01784 -2.33531,0.07756 -3.01849,0.04765 -3.97433,-0.173892 -1.19945,-0.278013 -1.953094,-0.717849 -2.56524,-1.497087 -0.485174,-0.617595 -0.696422,-1.072708 -0.884493,-1.905503 -0.428233,-1.896297 0.216716,-3.755543 1.773433,-5.112449 0.85834,-0.74818 1.53878,-1.108485 2.82467,-1.495691 1.57806,-0.475192 3.33467,-0.847136 4.61124,-0.570356 1.88186,0.408008 2.7184,3.894619 2.22118,4.022016 -3.18347,0.815671 -2.73324,-1.227106 -4.25141,-1.142875 -0.64756,0.03594 -2.37835,0.690543 -2.88771,1.04692 -0.52816,0.369586 -0.94273,0.982364 -1.00561,1.486415 -0.0663,0.532401 0.14016,1.17503 0.48757,1.516721 0.55342,0.544288 1.34432,0.667002 3.71544,0.576484 1.74924,-0.06678 2.30956,-0.04756 3.19672,0.109666 1.19422,0.211652 2.14715,0.737179 2.76255,1.523548 0.40386,0.516086 0.61752,1.01465 0.82413,1.922992 0.32895,1.44551 0.1662,2.650262 -0.51535,3.819514 -0.79494,1.363812 -1.92395,2.229292 -3.76543,2.886535 -0.90617,0.323411 -1.17214,0.390329 -2.12906,0.536303 z"
         id="path38-8-1-2" /><path
         style="fill:#ffffff;fill-opacity:1;stroke:#565656;stroke-width:0.688987;stroke-dasharray:none;stroke-opacity:1"
         d="m 105.56746,30.021733 c -3.18122,0.483987 -7.392948,-2.269771 -5.635318,-3.372668 1.794328,-1.125916 2.090858,-0.367491 3.912298,0.284377 0.70943,0.19262 1.32982,0.177814 2.24199,-0.05353 1.91774,-0.486489 2.89362,-1.583175 2.59304,-2.914338 -0.20048,-0.887626 -0.75742,-1.330451 -1.85505,-1.474945 -0.24735,-0.03254 -1.01018,-0.04058 -1.6952,-0.01784 -2.33531,0.07756 -3.01849,0.04765 -3.97433,-0.173892 -1.199448,-0.278013 -1.953092,-0.717849 -2.565238,-1.497087 -0.485174,-0.617595 -0.696422,-1.072708 -0.884493,-1.905503 -0.428233,-1.896297 0.216716,-3.755543 1.773433,-5.112449 0.858338,-0.74818 1.538778,-1.108485 2.824668,-1.495691 1.57806,-0.475192 3.33467,-0.847136 4.61124,-0.570356 1.88186,0.408008 2.7184,3.894619 2.22118,4.022016 -3.18347,0.815671 -2.73324,-1.227106 -4.25141,-1.142875 -0.64756,0.03594 -2.37835,0.690543 -2.88771,1.04692 -0.52816,0.369586 -0.94273,0.982364 -1.00561,1.486415 -0.0663,0.532401 0.14016,1.17503 0.48757,1.516721 0.55342,0.544288 1.34432,0.667002 3.71544,0.576484 1.74924,-0.06678 2.30956,-0.04756 3.19672,0.109666 1.19422,0.211652 2.14715,0.737179 2.76255,1.523548 0.40386,0.516086 0.61752,1.01465 0.82413,1.922992 0.32895,1.44551 0.1662,2.650262 -0.51535,3.819514 -0.79494,1.363812 -1.92395,2.229292 -3.76543,2.886535 -0.90617,0.323411 -1.17214,0.390329 -2.12906,0.536303 z"
         id="path38-8-1-2-1" /></g></g></svg>
